HIERARCHY
ROOT Hips
{
	OFFSET 0.000000 0.000000 0.000000
	CHANNELS 6 Xposition Yposition Zposition Zrotation Yrotation Xrotation 
	JOINT LHipJoint
	{
		OFFSET 0.000000 0.000000 0.000000
		CHANNELS 3 Zrotation Yrotation Xrotation
		JOINT LeftUpLeg
		{
			OFFSET 1.363060 -1.794630 0.839290
			CHANNELS 3 Zrotation Yrotation Xrotation
			JOINT LeftLeg
			{
				OFFSET 2.448110 -6.726130 0.000000
				CHANNELS 3 Zrotation Yrotation Xrotation
				JOINT LeftFoot
				{
					OFFSET 2.562200 -7.039590 0.000000
					CHANNELS 3 Zrotation Yrotation Xrotation
					JOINT LeftToeBase
					{
						OFFSET 0.157640 -0.433110 2.322550
						CHANNELS 3 Zrotation Yrotation Xrotation
						End Site
						{
							OFFSET 0.000000 0.000000 0.000000
						}
					}
				}
			}
		}
	}
	JOINT RHipJoint
	{
		OFFSET 0.000000 0.000000 0.000000
		CHANNELS 3 Zrotation Yrotation Xrotation
		JOINT RightUpLeg
		{
			OFFSET -1.305520 -1.794630 0.839290
			CHANNELS 3 Zrotation Yrotation Xrotation
			JOINT RightLeg
			{
				OFFSET -2.542530 -6.985550 0.000000
				CHANNELS 3 Zrotation Yrotation Xrotation
				JOINT RightFoot
				{
					OFFSET -2.568260 -7.056230 0.000000
					CHANNELS 3 Zrotation Yrotation Xrotation
					JOINT RightToeBase
					{
						OFFSET -0.164730 -0.452590 2.363150
						CHANNELS 3 Zrotation Yrotation Xrotation
						End Site
						{
							OFFSET 0.000000 0.000000 0.000000
						}
					}
				}
			}
		}
	}
}
MOTION
Frames: 14
Frame Time: 0.008333
-3.841942 16.157440 0.382584 2.882774 79.963428 30.682034 -8.458943 -0.970195 -0.680659 -15.302279 -1.895607 -63.120377 -2.424366 2.542638 35.735777 1.274436 5.412937 -3.104884 0.890000 -0.000001 -16.033200 10.868717 -0.279900 -5.309718 7.948865 -9.124590 -29.915058 1.227764 -4.168221 56.732127 1.593273 19.750545 -5.896746 -0.134700 -0.000000 -69.769800
-3.696681 16.129703 0.396571 3.802408 79.836333 31.395667 -8.469738 -1.004777 -0.738741 -15.159600 -2.193535 -63.198627 -2.247134 2.691430 37.760666 1.376776 5.840153 -3.852579 0.833400 -0.000000 -14.241500 10.967877 -0.274113 -5.338234 7.366390 -9.365558 -29.771649 1.057754 -4.245794 57.591262 1.586221 20.210104 -4.637428 0.269000 -0.000000 -71.643400
-3.553770 16.104245 0.412058 4.874448 79.714811 32.246477 -8.474551 -1.034764 -0.821570 -15.134795 -2.416042 -63.198631 -2.099446 2.825328 39.683327 1.482426 6.265326 -4.775510 0.743500 0.000000 -13.101700 11.068808 -0.264288 -5.371139 6.767417 -9.619936 -29.657031 0.883025 -4.327916 58.480152 1.566253 20.593095 -3.338273 0.718700 -0.000000 -73.332400
-3.413114 16.081095 0.428647 6.009052 79.595367 33.146695 -8.474357 -1.058400 -0.925644 -15.209111 -2.557766 -63.105062 -1.981995 2.942472 41.459377 1.589787 6.680507 -5.845785 0.619600 -0.000000 -12.574800 11.170817 -0.251648 -5.407134 6.169119 -9.879904 -29.566353 0.705766 -4.413144 59.391949 1.533998 20.892961 -2.012733 1.205100 0.000000 -74.773000
-3.274564 16.060192 0.445900 7.120753 79.474331 34.012991 -8.470772 -1.074366 -1.046362 -15.358290 -2.617540 -62.912089 -1.893384 3.042480 43.061177 1.696971 7.076844 -7.025970 0.462900 0.000000 -12.580600 11.272844 -0.236974 -5.445486 5.588614 -10.141392 -29.497620 0.527268 -4.499973 60.322423 1.490185 21.107049 -0.663674 1.721000 -0.000000 -75.939000
-3.137882 16.041347 0.463291 8.131276 79.349192 34.769879 -8.466107 -1.082090 -1.178547 -15.555048 -2.598569 -62.621602 -1.830373 3.126014 44.477080 1.802005 7.446684 -8.272708 0.277999 -0.000000 -13.006800 11.373023 -0.221062 -5.485360 5.042617 -10.399409 -29.448337 0.349029 -4.586515 61.267099 1.435838 21.236163 0.701441 2.256600 -0.000001 -76.788300
-3.002813 16.024350 0.480409 8.981127 79.219067 35.360888 -8.463036 -1.081897 -1.316495 -15.771776 -2.509587 -62.243521 -1.788324 3.194574 45.710331 1.902906 7.784441 -9.540980 0.071701 -0.000000 -13.713100 11.469059 -0.204354 -5.526478 4.545557 -10.651864 -29.418855 0.172082 -4.671059 62.223287 1.371883 21.282241 2.079875 2.803000 -0.000001 -77.300701
-2.869126 16.008923 0.496879 9.632771 79.084430 35.752014 -8.464192 -1.074963 -1.454396 -15.982608 -2.364269 -61.793043 -1.761688 3.250135 46.776317 1.998081 8.088414 -10.789202 -0.147600 -0.000000 -14.542700 11.558579 -0.187151 -5.569002 4.109437 -10.898836 -29.411296 -0.002759 -4.752189 63.189538 1.299077 21.245422 3.469599 3.351300 -0.000000 -77.465300
-2.736659 15.994817 0.512414 10.071686 78.947613 35.932727 -8.471785 -1.062957 -1.586494 -16.166001 -2.180811 -61.289150 -1.744509 3.294930 47.699447 2.086706 8.361880 -11.982774 -0.371400 -0.000000 -15.342500 11.639419 -0.169447 -5.613376 3.742678 -11.142487 -29.429902 -0.174813 -4.828901 64.165366 1.217962 21.121125 4.866871 3.890900 -0.000000 -77.278300
-2.605305 15.981860 0.526929 10.304541 78.812196 35.914208 -8.487123 -1.047946 -1.707525 -16.305243 -1.981017 -60.752074 -1.730931 3.331069 48.508669 2.169011 8.613311 -13.096557 -0.592200 -0.000000 -15.988200 11.710034 -0.150735 -5.660458 3.450295 -11.386406 -29.481328 -0.343612 -4.900785 65.151487 1.128804 20.898555 6.266277 4.408900 0.000001 -76.744300
-2.475083 15.969911 0.540387 10.352421 78.682699 35.721473 -8.510649 -1.032016 -1.813733 -16.389665 -1.786292 -60.200021 -1.715915 3.360500 49.233398 2.246023 8.854097 -14.116058 -0.805099 0.000000 -16.401200 11.769411 -0.130639 -5.711137 3.234245 -11.631242 -29.568912 -0.507955 -4.967850 66.147700 1.032686 20.561982 7.638128 4.880700 0.000000 -75.821001
-2.345922 15.958852 0.552964 10.248909 78.562366 35.394631 -8.541749 -1.016308 -1.899617 -16.415292 -1.619300 -59.654322 -1.695282 3.384643 49.900791 2.320036 9.099376 -15.035731 -1.007600 0.000000 -16.563099 11.817608 -0.107177 -5.765620 3.094244 -11.887582 -29.712498 -0.669680 -5.030640 67.159650 0.927159 20.079108 9.007789 5.298601 0.000000 -74.630200
-2.218107 15.948789 0.564871 10.031739 78.456161 34.972360 -8.579073 -1.002529 -1.965897 -16.384192 -1.493887 -59.122597 -1.666908 3.404573 50.531306 2.392993 9.360474 -15.862091 -1.200500 -0.000000 -16.495999 11.854894 -0.079969 -5.825404 3.026170 -12.151475 -29.908761 -0.826724 -5.090231 68.185227 0.814363 19.426504 10.307317 5.619400 0.000000 -73.084100
-2.091800 15.939764 0.576374 9.735366 78.366557 34.491814 -8.620833 -0.991397 -2.012620 -16.302584 -1.419190 -58.612377 -1.630116 3.420834 51.138209 2.467126 9.647210 -16.607643 -1.386300 0.000000 -16.265000 11.882130 -0.047817 -5.890758 3.025128 -12.423230 -30.165227 -0.979490 -5.147846 69.225714 0.693841 18.572954 11.508822 5.814700 -0.000000 -71.227199
